<svg width="25" height="25" viewBox="0 0 25 25" fill="none" xmlns="http://www.w3.org/2000/svg">
<path fill-rule="evenodd" clip-rule="evenodd" d="M3.5 4.38889C3.5 3.89797 3.89797 3.5 4.38889 3.5H10.6111C11.102 3.5 11.5 3.89797 11.5 4.38889V10.6111C11.5 11.102 11.102 11.5 10.6111 11.5H4.38889C3.89797 11.5 3.5 11.102 3.5 10.6111V4.38889ZM5.27778 5.27778V9.72222H9.72222V5.27778H5.27778ZM13.5 4.38889C13.5 3.89797 13.898 3.5 14.3889 3.5H20.6111C21.102 3.5 21.5 3.89797 21.5 4.38889V10.6111C21.5 11.102 21.102 11.5 20.6111 11.5H14.3889C13.898 11.5 13.5 11.102 13.5 10.6111V4.38889ZM15.2778 5.27778V9.72222H19.7222V5.27778H15.2778ZM14.3889 13.5C13.898 13.5 13.5 13.898 13.5 14.3889V20.6111C13.5 21.102 13.898 21.5 14.3889 21.5H20.6111C21.102 21.5 21.5 21.102 21.5 20.6111V14.3889C21.5 13.898 21.102 13.5 20.6111 13.5H14.3889ZM15.2778 19.7222V15.2778H19.7222V19.7222H15.2778ZM3.5 14.3889C3.5 13.898 3.89797 13.5 4.38889 13.5H10.6111C11.102 13.5 11.5 13.898 11.5 14.3889V20.6111C11.5 21.102 11.102 21.5 10.6111 21.5H4.38889C3.89797 21.5 3.5 21.102 3.5 20.6111V14.3889ZM5.27778 15.2778V19.7222H9.72222V15.2778H5.27778Z" fill="#2E7FFF"/>
</svg>
