<svg width="24" height="24" viewBox="0 0 24 24" fill="none" xmlns="http://www.w3.org/2000/svg">
<path fill-rule="evenodd" clip-rule="evenodd" d="M11.2577 3H12.7423C14.0418 3 15.0607 2.99999 15.8795 3.0669C16.7134 3.13502 17.4022 3.27604 18.0257 3.59373C19.0507 4.11599 19.884 4.94933 20.4063 5.97432C20.724 6.59781 20.865 7.28665 20.9331 8.12047C21 8.93932 21 9.95815 21 11.2577V12.7423C21 14.0419 21 15.0607 20.9331 15.8795C20.865 16.7134 20.724 17.4022 20.4063 18.0257C19.884 19.0507 19.0507 19.884 18.0257 20.4063C17.4022 20.724 16.7134 20.865 15.8795 20.9331C15.0607 21 14.0419 21 12.7423 21H11.2577C9.95815 21 8.93932 21 8.12047 20.9331C7.28665 20.865 6.59781 20.724 5.97432 20.4063C4.94933 19.884 4.11599 19.0507 3.59373 18.0257C3.27604 17.4022 3.13502 16.7134 3.0669 15.8795C2.99999 15.0607 3 14.0418 3 12.7423V11.2577C3 9.95816 2.99999 8.93932 3.0669 8.12047C3.13502 7.28665 3.27604 6.59781 3.59373 5.97432C4.11599 4.94933 4.94933 4.11599 5.97432 3.59373C6.59781 3.27604 7.28665 3.13502 8.12047 3.0669C8.93932 2.99999 9.95816 3 11.2577 3ZM8.23618 4.48323C7.49025 4.54417 7.00923 4.6613 6.61946 4.8599C5.86186 5.24591 5.24591 5.86186 4.8599 6.61946C4.6613 7.00923 4.54417 7.49025 4.48323 8.23618C4.42161 8.99042 4.42105 9.95131 4.42105 11.2895V12.7105C4.42105 14.0487 4.42161 15.0096 4.48323 15.7638C4.54417 16.5098 4.6613 16.9908 4.8599 17.3805C5.24591 18.1381 5.86186 18.7541 6.61946 19.1401C7.00923 19.3387 7.49025 19.4558 8.23618 19.5168C8.99042 19.5784 9.95131 19.5789 11.2895 19.5789H12.7105C14.0487 19.5789 15.0096 19.5784 15.7638 19.5168C16.5098 19.4558 16.9908 19.3387 17.3805 19.1401C18.1381 18.7541 18.7541 18.1381 19.1401 17.3805C19.3387 16.9908 19.4558 16.5098 19.5168 15.7638C19.5784 15.0096 19.5789 14.0487 19.5789 12.7105V11.2895C19.5789 9.95131 19.5784 8.99042 19.5168 8.23618C19.4558 7.49025 19.3387 7.00923 19.1401 6.61946C18.7541 5.86186 18.1381 5.24591 17.3805 4.8599C16.9908 4.6613 16.5098 4.54417 15.7638 4.48323C15.0096 4.42161 14.0487 4.42105 12.7105 4.42105H11.2895C9.95131 4.42105 8.99042 4.42161 8.23618 4.48323ZM9.15789 7.73684C8.63468 7.73684 8.21053 8.16099 8.21053 8.68421C8.21053 9.20743 8.63468 9.63158 9.15789 9.63158C9.68111 9.63158 10.1053 9.20743 10.1053 8.68421C10.1053 8.16099 9.68111 7.73684 9.15789 7.73684ZM6.78947 8.68421C6.78947 7.37617 7.84985 6.31579 9.15789 6.31579C10.4659 6.31579 11.5263 7.37617 11.5263 8.68421C11.5263 9.99225 10.4659 11.0526 9.15789 11.0526C7.84985 11.0526 6.78947 9.99225 6.78947 8.68421ZM13.4211 7.02632C13.4211 6.6339 13.7392 6.31579 14.1316 6.31579L16.5 6.31579C16.8924 6.31579 17.2105 6.6339 17.2105 7.02632C17.2105 7.41873 16.8924 7.73684 16.5 7.73684L14.1316 7.73684C13.7392 7.73684 13.4211 7.41873 13.4211 7.02632ZM13.4211 10.3421C13.4211 9.94969 13.7392 9.63158 14.1316 9.63158L16.5 9.63158C16.8924 9.63158 17.2105 9.94969 17.2105 10.3421C17.2105 10.7345 16.8924 11.0526 16.5 11.0526L14.1316 11.0526C13.7392 11.0526 13.4211 10.7345 13.4211 10.3421ZM6.78947 13.6579C6.78947 13.2655 7.10759 12.9474 7.5 12.9474H16.5C16.8924 12.9474 17.2105 13.2655 17.2105 13.6579C17.2105 14.0503 16.8924 14.3684 16.5 14.3684H7.5C7.10759 14.3684 6.78947 14.0503 6.78947 13.6579ZM6.78947 16.9737C6.78947 16.5813 7.10759 16.2632 7.5 16.2632L16.5 16.2632C16.8924 16.2632 17.2105 16.5813 17.2105 16.9737C17.2105 17.3661 16.8924 17.6842 16.5 17.6842L7.5 17.6842C7.10759 17.6842 6.78947 17.3661 6.78947 16.9737Z" fill="#99A3AD"/>
</svg>
