<svg width="24" height="24" viewBox="0 0 24 24" fill="none" xmlns="http://www.w3.org/2000/svg">
<path d="M12 1C18.0657 1 23 5.93429 23 12C23 18.0657 18.0657 23 12 23C5.93429 23 1 18.0657 1 12C1 5.93429 5.93429 1 12 1ZM12 3.33329C6.93762 3.33329 3.33329 6.93762 3.33329 12C3.33329 17.0624 6.93762 20.6667 12 20.6667C17.0624 20.6667 20.6667 17.0624 20.6667 12C20.6667 6.93762 17.0624 3.33329 12 3.33329ZM11.2928 5.73213C11.56 5.19784 12.44 5.19784 12.7071 5.73213L14.2398 8.84352L17.6728 9.33907C17.9641 9.38621 18.2155 9.59045 18.3014 9.8733C18.3957 10.1562 18.3171 10.4705 18.1055 10.6821L15.6226 13.1021L16.2114 16.5205C16.2586 16.8107 16.1412 17.1092 15.8971 17.2905C15.7641 17.3848 15.5986 17.4393 15.4341 17.4393C15.3084 17.4393 15.1826 17.4078 15.0726 17.3449L12 15.7348L8.92837 17.3449C8.66856 17.4864 8.34695 17.4633 8.10286 17.2905C7.85981 17.1092 7.74141 16.8107 7.78855 16.5205L8.37838 13.1021L5.89553 10.6821C5.68286 10.4705 5.60427 10.1562 5.69856 9.8733C5.78551 9.59045 6.0359 9.38621 6.32713 9.33907L9.76121 8.84352L11.2928 5.73213ZM12 7.85352L10.9869 9.90476C10.8769 10.1405 10.6486 10.2976 10.3971 10.3364L8.13428 10.6664L9.76857 12.2619C9.95714 12.4421 10.0357 12.7019 9.99693 12.9607L9.61143 15.2162L11.6386 14.1476C11.7486 14.0921 11.8743 14.0606 12 14.0606C12.1257 14.0606 12.2514 14.0921 12.3614 14.1476L14.3886 15.2162L14.0041 12.9607C13.9643 12.7019 14.0428 12.4421 14.2314 12.2619L15.8657 10.6664L13.6029 10.3364C13.3514 10.2976 13.1241 10.1405 13.0141 9.90476L12 7.85352Z" fill="#FF2E38"/>
</svg>
