<svg width="41" height="41" viewBox="0 0 41 41" fill="none" xmlns="http://www.w3.org/2000/svg">
<path fill-rule="evenodd" clip-rule="evenodd" d="M10.1491 16.916H8.48242C5.721 16.916 3.48242 19.1546 3.48242 21.916V33.5827C3.48242 36.3441 5.721 38.5827 8.48242 38.5827H31.8158C34.5772 38.5827 36.8158 36.3441 36.8158 33.5827V21.916C36.8158 19.1546 34.5772 16.916 31.8158 16.916H30.1491V11.916C30.1491 6.39317 25.6719 1.91602 20.1491 1.91602C14.6262 1.91602 10.1491 6.39317 10.1491 11.916V16.916ZM13.4824 16.916H26.8158V11.916C26.8158 8.23412 23.831 5.24935 20.1491 5.24935C16.4672 5.24935 13.4824 8.23412 13.4824 11.916V16.916ZM28.4824 20.2493H31.8158C32.7362 20.2493 33.4824 20.9955 33.4824 21.916V33.5827C33.4824 34.5032 32.7362 35.2493 31.8158 35.2493H8.48242C7.56195 35.2493 6.81576 34.5032 6.81576 33.5827V21.916C6.81576 20.9955 7.56195 20.2493 8.48242 20.2493H11.8158H28.4824Z" fill="white"/>
</svg>
