<svg width="24" height="24" viewBox="0 0 24 24" fill="none" xmlns="http://www.w3.org/2000/svg">
<path d="M17.1631 12.7285L18.5206 12.7299C19.3376 12.7299 20 13.3923 20 14.2094V18.5179C20 19.335 19.3376 19.9973 18.5206 19.9973H14.212C13.395 19.9973 12.7326 19.335 12.7326 18.5179L12.7325 17.3973L12.7337 17.3972L12.7325 17.3741L12.7322 17.3172C12.7452 17.1639 12.8548 17.0503 13.0609 16.9763L13.1572 16.9465C13.3965 16.8828 13.5421 16.7695 13.5943 16.6067L13.6109 16.5339L13.6161 16.455C13.6177 16.2093 13.4648 16.0454 13.1572 15.9635C12.8888 15.8919 12.7471 15.7684 12.7322 15.5928L12.7325 15.5362L12.7337 15.5128L12.7325 15.513L12.7326 14.2094C12.7326 13.3923 13.395 12.7299 14.212 12.7299L15.7328 12.727C15.8307 12.792 15.9041 12.9165 15.9531 13.1005C16.035 13.4083 16.1989 13.5613 16.4446 13.5597L16.5235 13.5545C16.7122 13.5274 16.8446 13.3937 16.9207 13.1536C16.9222 13.1532 16.9239 13.1542 16.9255 13.1552L16.9416 13.103C16.9908 12.918 17.0647 12.7932 17.1631 12.7285ZM7.00025 12.727C7.09808 12.792 7.17149 12.9165 7.22049 13.1005C7.27562 13.3076 7.36781 13.4446 7.49705 13.5116L7.51804 13.5215L7.53947 13.5307C7.54671 13.5333 7.55416 13.5359 7.56172 13.5383C7.60948 13.5548 7.66152 13.5625 7.71787 13.5622L7.79669 13.557C7.99879 13.5279 8.13624 13.3765 8.20903 13.103C8.25823 12.918 8.33207 12.7932 8.43055 12.7285L9.78797 12.7299C10.605 12.7299 11.2674 13.3923 11.2674 14.2094L11.2675 15.5349C11.6899 15.628 12.0059 16.0046 12.0059 16.455C12.0059 16.9054 11.6899 17.2819 11.2675 17.3751L11.2674 18.5179C11.2674 19.335 10.605 19.9973 9.78797 19.9973H5.47943C4.66236 19.9973 4 19.335 4 18.5179V14.2094C4 13.3923 4.66236 12.7299 5.47943 12.7299L7.00025 12.727ZM17.7938 14.2094L17.3613 14.21C17.2545 14.6131 16.8872 14.9102 16.4505 14.9102C16.3833 14.9102 16.3177 14.9031 16.2545 14.8898L16.1644 14.8667C15.8573 14.7711 15.6176 14.5226 15.5342 14.2101L14.9388 14.2094C14.5374 14.2094 14.212 14.535 14.212 14.9366L14.2122 15.544C14.6155 15.6507 14.9128 16.0181 14.9128 16.455C14.9128 16.8918 14.6155 17.2592 14.2122 17.3659L14.212 17.7906C14.212 18.1923 14.5374 18.5179 14.9388 18.5179H17.7938C18.1952 18.5179 18.5206 18.1923 18.5206 17.7906V14.9366C18.5206 14.535 18.1952 14.2094 17.7938 14.2094ZM9.06123 14.2094L8.62871 14.21L8.60608 14.281L8.59521 14.3122C8.58763 14.3315 8.57958 14.3501 8.57096 14.3685C8.566 14.379 8.56087 14.3894 8.55556 14.3997L8.53245 14.4418C8.52339 14.4573 8.51406 14.4723 8.50434 14.487L8.48519 14.5149C8.47512 14.529 8.46474 14.5427 8.45399 14.5561C8.44428 14.5683 8.4342 14.5802 8.42384 14.5919L8.39025 14.628C8.37978 14.6387 8.36897 14.6492 8.35791 14.6594C8.34793 14.6686 8.33784 14.6776 8.32755 14.6863C8.31116 14.7003 8.29407 14.7138 8.27652 14.7268L8.25447 14.7425C8.2391 14.7532 8.22347 14.7634 8.20753 14.7731L8.17371 14.7927C8.13351 14.815 8.09152 14.8344 8.04801 14.8507C7.97506 14.878 7.8977 14.8965 7.81733 14.905C7.78253 14.9085 7.75039 14.9102 7.71787 14.9102C7.65282 14.9102 7.58931 14.9036 7.52798 14.891C7.47389 14.8796 7.4272 14.8658 7.38216 14.8486C7.36931 14.8437 7.35681 14.8386 7.34445 14.8333C7.33308 14.8284 7.3213 14.823 7.30966 14.8174C7.29334 14.8095 7.27755 14.8013 7.26203 14.7927C7.25058 14.7864 7.23928 14.7798 7.22813 14.773C7.21249 14.7635 7.19708 14.7535 7.18199 14.743L7.15606 14.7244L7.10798 14.6862C7.09793 14.6776 7.08782 14.6687 7.0779 14.6595C7.06677 14.6492 7.05595 14.6387 7.0454 14.6279L7.01182 14.5919L6.99627 14.5738L6.98111 14.5553L6.95898 14.5265C6.9478 14.5113 6.93699 14.4957 6.92664 14.4797C6.92064 14.4705 6.91493 14.4613 6.90937 14.4521C6.8992 14.4351 6.88952 14.4178 6.88038 14.4001C6.87317 14.3862 6.86613 14.3717 6.85946 14.357L6.84496 14.3233L6.8259 14.2723C6.82113 14.2583 6.81661 14.244 6.81243 14.2295C6.81051 14.2228 6.80874 14.2164 6.80703 14.21L6.20617 14.2094C5.8048 14.2094 5.47943 14.535 5.47943 14.9366V17.7906C5.47943 18.1923 5.8048 18.5179 6.20617 18.5179H9.06123C9.4626 18.5179 9.78797 18.1923 9.78797 17.7906L9.78734 17.0916C9.85813 17.0304 9.96019 16.982 10.0935 16.9465C10.3327 16.8828 10.4784 16.7695 10.5305 16.6067L10.5472 16.5339L10.5524 16.455C10.554 16.2093 10.401 16.0454 10.0935 15.9635C9.96019 15.9279 9.85813 15.8796 9.78734 15.8184L9.78797 14.9366C9.78797 14.535 9.4626 14.2094 9.06123 14.2094ZM18.5158 4C19.3323 4 19.9941 4.66285 19.9941 5.48051V9.79221C19.9941 10.6099 19.3323 11.2727 18.5158 11.2727L17.2797 11.2735C17.1821 11.69 16.8087 12 16.3631 12C15.9175 12 15.5441 11.69 15.4465 11.2735L14.2104 11.2727C13.9355 11.2727 13.6782 11.1976 13.4577 11.0667C13.2384 11.1976 12.981 11.2727 12.7061 11.2727L11.3788 11.2735C11.2811 11.69 10.9078 12 10.4621 12C10.0165 12 9.6432 11.69 9.54554 11.2735L8.40074 11.2727C7.58427 11.2727 6.92239 10.6099 6.92239 9.79221V5.48051C6.92239 4.66285 7.58427 4 8.40074 4H18.5158ZM11.9794 5.48051H9.12748C8.72611 5.48051 8.40074 5.80612 8.40074 6.20779V9.06494C8.40074 9.4666 8.72611 9.79221 9.12748 9.79221L9.81092 9.79148C9.87926 9.86258 9.93262 9.97025 9.97099 10.1145C10.0347 10.3538 10.1479 10.4996 10.3106 10.5518L10.3833 10.5685L10.4621 10.5737C10.7077 10.5753 10.8714 10.4222 10.9533 10.1145C10.9917 9.97025 11.045 9.86258 11.1134 9.79148L11.9794 9.79221C12.3808 9.79221 12.7061 9.4666 12.7061 9.06494L12.7055 8.6321C12.3027 8.52519 12.0058 8.15761 12.0058 7.72059C12.0058 7.28357 12.3027 6.91599 12.7055 6.80908L12.7061 6.20779C12.7061 5.80612 12.3808 5.48051 11.9794 5.48051ZM17.7891 5.48051H14.9371C14.5358 5.48051 14.2104 5.80612 14.2104 6.20779L14.2118 6.95938C14.1588 7.08224 14.0254 7.17214 13.8117 7.22907C13.5042 7.31102 13.3512 7.47486 13.3529 7.72059L13.358 7.79947C13.3871 8.00172 13.5384 8.13927 13.8117 8.21211C14.0255 8.26907 14.1589 8.35903 14.2119 8.48198L14.2104 9.06494C14.2104 9.4666 14.5358 9.79221 14.9371 9.79221L15.7119 9.79148C15.7802 9.86258 15.8336 9.97025 15.8719 10.1145C15.9356 10.3538 16.0488 10.4996 16.2115 10.5518L16.2843 10.5685L16.3631 10.5737C16.6087 10.5753 16.7724 10.4222 16.8543 10.1145C16.8926 9.97025 16.946 9.86258 17.0143 9.79148L17.7891 9.79221C18.1904 9.79221 18.5158 9.4666 18.5158 9.06494V6.20779C18.5158 5.80612 18.1904 5.48051 17.7891 5.48051Z" fill="#6F7D8A"/>
</svg>
