<svg width="24" height="24" viewBox="0 0 24 24" fill="none" xmlns="http://www.w3.org/2000/svg">
<path fill-rule="evenodd" clip-rule="evenodd" d="M11.8728 10.6206L14.8419 12.2907C15.3058 12.5691 15.5841 13.1258 15.5841 13.6825C15.5841 14.2392 15.213 14.7959 14.7491 15.0742L11.78 16.7443C11.5944 16.8371 11.3161 16.9299 11.0377 16.9299C10.7594 16.9299 10.481 16.9299 10.2027 16.7443C9.73876 16.466 9.46041 15.9093 9.46041 15.3526V12.0124C9.46041 11.4557 9.73876 10.9918 10.2955 10.6206C10.7594 10.3423 11.4089 10.3423 11.8728 10.6206ZM11.1305 15.5382L14.0996 13.8681C14.1924 13.7753 14.1924 13.7753 14.1924 13.6825C14.1924 13.5897 14.1924 13.5897 14.0996 13.4969L11.1305 11.8268H10.9449C10.9449 11.8268 10.8522 11.9196 10.8522 12.0124V15.3526C10.8522 15.4454 10.9449 15.5382 10.9449 15.5382H11.1305Z" fill="#99A3AD"/>
<path fill-rule="evenodd" clip-rule="evenodd" d="M9.49484 3H14.5052C19.0515 3 21 5.04124 21 9.58763V14.5052C21 19.0515 19.0515 21 14.5052 21H9.49484C4.94845 21 3 19.0515 3 14.5052V9.49485C3 4.94845 4.94845 3 9.49484 3ZM15.6186 7.26804H19.4227C18.9588 5.50516 17.7526 4.6701 15.6186 4.48454V7.26804ZM14.2268 4.48454H9.7732L9.7732 7.26804H14.2268L14.2268 4.48454ZM8.38144 7.26804V4.48454C6.15464 4.6701 5.04124 5.50516 4.57732 7.26804H8.38144ZM14.5052 19.701C18.2165 19.701 19.6082 18.4021 19.6082 14.5979V8.65979H4.39175V14.5979C4.39175 18.3093 5.69072 19.701 9.49484 19.701H14.5052Z" fill="#99A3AD"/>
</svg>
