<svg width="24" height="24" viewBox="0 0 24 24" fill="none" xmlns="http://www.w3.org/2000/svg">
<path fill-rule="evenodd" clip-rule="evenodd" d="M3.00158 12.3676C3.00158 7.47252 7.02762 3.5 11.9993 3.5C16.971 3.5 20.9971 7.47252 20.9971 12.3676V15.0152C20.999 15.0596 21 15.1043 21 15.1492V17.4236C21 19.1185 19.6011 20.4925 17.8756 20.4925C16.15 20.4925 14.7511 19.1185 14.7511 17.4236V15.1492C14.7511 13.4543 16.15 12.0803 17.8756 12.0803C18.5183 12.0803 19.1158 12.2709 19.6125 12.5978V12.3676C19.6125 8.21894 16.2016 4.86 11.9993 4.86C7.7971 4.86 4.3862 8.21894 4.3862 12.3676V12.6061C4.88315 12.2787 5.48109 12.0878 6.12444 12.0878C7.85002 12.0878 9.24888 13.4617 9.24888 15.1566V17.4311C9.24888 19.126 7.85002 20.5 6.12444 20.5C4.39886 20.5 3 19.126 3 17.4311V15.1566C3 15.1237 3.00053 15.0909 3.00158 15.0582V12.3676ZM19.6125 15.0493C19.5598 14.152 18.8023 13.4403 17.8756 13.4403C16.9147 13.4403 16.1357 14.2054 16.1357 15.1492V17.4236C16.1357 18.3674 16.9147 19.1325 17.8756 19.1325C18.8364 19.1325 19.6154 18.3674 19.6154 17.4236L19.6125 15.0493ZM4.38462 17.4311C4.38462 18.3749 5.16356 19.14 6.12444 19.14C7.08532 19.14 7.86426 18.3749 7.86426 17.4311V15.1566C7.86426 14.2128 7.08532 13.4478 6.12444 13.4478C5.18861 13.4478 4.42536 14.1735 4.3862 15.0832L4.38462 17.4311Z" fill="#99A3AD"/>
</svg>
