<svg width="24" height="24" viewBox="0 0 24 24" fill="none" xmlns="http://www.w3.org/2000/svg">
<path fill-rule="evenodd" clip-rule="evenodd" d="M6.60365 4.95872C6.43469 5.35046 6.36072 5.76338 6.36072 6.1763V9.52841L4.52337 10.2313C3.74189 10.5384 3.10829 11.1313 2.77035 11.9042C2.43241 12.6665 2.41129 13.5453 2.70699 14.3288L4.48115 18.9556C4.629 19.3473 4.85076 19.6967 5.1359 20.0038C5.43159 20.3108 5.76955 20.5543 6.14973 20.7237C6.52991 20.8931 6.94172 20.999 7.35358 20.999C7.76544 21.0096 8.17733 20.9355 8.56807 20.7872L12.0108 19.4744L12.0276 19.4677L15.4218 20.7661C15.8125 20.9143 16.2244 20.9884 16.6363 20.9778C17.0481 20.9778 17.46 20.8719 17.8402 20.7025C18.2204 20.5331 18.5583 20.2896 18.8539 19.9826C19.1391 19.6755 19.3608 19.3261 19.5087 18.9344L21.2828 14.3076C21.5891 13.5241 21.568 12.6559 21.2406 11.883C20.9027 11.1101 20.2796 10.5066 19.5087 10.1996L17.6499 9.49058V6.1763C17.6499 5.32928 17.312 4.52463 16.7206 3.93172C16.1292 3.33881 15.3266 3 14.4818 3H9.52888C9.11702 3 8.69463 3.08471 8.31445 3.24353C7.93428 3.40234 7.58574 3.63526 7.29005 3.93172C6.99435 4.21758 6.76206 4.57757 6.60365 4.95872ZM7.98496 5.54362L7.98099 5.5528C7.90209 5.73573 7.86072 5.94325 7.86072 6.1763V15.6628C7.86072 16.1008 8.04023 16.5355 8.35207 16.8481C8.66567 17.1625 9.08764 17.3391 9.52888 17.3391H14.4818C14.9151 17.3391 15.3469 17.1606 15.6586 16.8481C15.9723 16.5336 16.1499 16.1087 16.1499 15.6628V6.1763C16.1499 5.73039 15.9723 5.30554 15.6586 4.99102C15.345 4.67661 14.923 4.5 14.4818 4.5H9.52888C9.31564 4.5 9.08977 4.54527 8.89264 4.62762C8.69293 4.71104 8.5089 4.83379 8.35207 4.99102L8.34244 5.00067L8.33264 5.01015C8.20286 5.13562 8.07913 5.31703 7.98879 5.53438L7.98496 5.54362ZM9.46839 18.8385C8.6458 18.8228 7.86731 18.4861 7.29005 17.9074C6.69866 17.3145 6.36072 16.4992 6.36072 15.6628V11.1344L5.06658 11.6295C4.64306 11.7975 4.31674 12.1117 4.14472 12.5051L4.14164 12.5121C3.96614 12.908 3.95187 13.3767 4.10919 13.796L5.88453 18.4259C5.95839 18.6216 6.07006 18.803 6.22589 18.9731C6.39559 19.1471 6.57369 19.2704 6.76024 19.3536C6.99169 19.4567 7.19492 19.499 7.35358 19.499H7.37286L7.39213 19.4995C8.09604 19.5176 8.82935 19.0822 9.46839 18.8385ZM14.5787 18.8376C15.3788 18.8124 16.1521 18.4773 16.7206 17.9074C17.312 17.3145 17.6499 16.5098 17.6499 15.6628V11.096L18.9622 11.5965C19.3561 11.756 19.6819 12.0679 19.8628 12.4761C20.0386 12.8967 20.0444 13.3557 19.8858 13.7615L18.1081 18.3973L18.1053 18.4047C18.0314 18.6005 17.9198 18.7819 17.764 18.9519C17.5942 19.126 17.4162 19.2493 17.2297 19.3324C16.9983 19.4355 16.795 19.4778 16.6363 19.4778H16.617L16.5977 19.4783C15.9116 19.496 15.2013 19.0757 14.5787 18.8376Z" fill="#99A3AD"/>
</svg>
