<svg width="25" height="25" viewBox="0 0 25 25" fill="none" xmlns="http://www.w3.org/2000/svg">
<path fill-rule="evenodd" clip-rule="evenodd" d="M5.5 6.5C5.5 7.05228 5.05228 7.5 4.5 7.5C3.94772 7.5 3.5 7.05228 3.5 6.5C3.5 5.94772 3.94772 5.5 4.5 5.5C5.05228 5.5 5.5 5.94772 5.5 6.5ZM21.5 7.5H8.5C7.94772 7.5 7.5 7.05228 7.5 6.5C7.5 5.94772 7.94772 5.5 8.5 5.5H21.5C22.0523 5.5 22.5 5.94772 22.5 6.5C22.5 7.05228 22.0523 7.5 21.5 7.5ZM4.5 13.5C5.05228 13.5 5.5 13.0523 5.5 12.5C5.5 11.9477 5.05228 11.5 4.5 11.5C3.94772 11.5 3.5 11.9477 3.5 12.5C3.5 13.0523 3.94772 13.5 4.5 13.5ZM5.5 18.5C5.5 19.0523 5.05228 19.5 4.5 19.5C3.94772 19.5 3.5 19.0523 3.5 18.5C3.5 17.9477 3.94772 17.5 4.5 17.5C5.05228 17.5 5.5 17.9477 5.5 18.5ZM8.5 13.5H21.5C22.0523 13.5 22.5 13.0523 22.5 12.5C22.5 11.9477 22.0523 11.5 21.5 11.5H8.5C7.94772 11.5 7.5 11.9477 7.5 12.5C7.5 13.0523 7.94772 13.5 8.5 13.5ZM21.5 19.5H8.5C7.94772 19.5 7.5 19.0523 7.5 18.5C7.5 17.9477 7.94772 17.5 8.5 17.5H21.5C22.0523 17.5 22.5 17.9477 22.5 18.5C22.5 19.0523 22.0523 19.5 21.5 19.5Z" fill="#2E7FFF"/>
</svg>
