<svg width="24" height="24" viewBox="0 0 24 24" fill="none" xmlns="http://www.w3.org/2000/svg">
<path d="M11.9545 21C9.77273 21 8.68182 21 7.68182 20.64C6.40909 20.1 5.40909 19.11 4.86364 17.85C4.5 16.86 4.5 15.78 4.5 13.62V10.29C4.5 8.31 4.5 7.23 4.86364 6.33C5.31818 4.98 6.40909 3.9 7.77273 3.36C8.68182 3 9.68182 3 11.7727 3C12.6818 3 13.1364 3 13.5909 3.09C14.2273 3.18 14.9545 3.45 15.5909 3.9C15.9545 4.17 16.3182 4.44 16.9545 5.07L17.1364 5.25C17.9545 6.06 18.4091 6.42 18.6818 6.96C18.9545 7.41 19.2273 7.95 19.3182 8.49C19.5 9.12 19.5 9.66 19.5 10.83V13.62C19.5 15.78 19.5 16.86 19.1364 17.85C18.5909 19.11 17.5909 20.1 16.3182 20.64C15.2273 21 14.1364 21 11.9545 21ZM11.7727 4.35C9.86364 4.35 8.95455 4.35 8.31818 4.62C7.22727 4.98 6.40909 5.79 6.04545 6.78C5.77273 7.5 5.77273 8.4 5.77273 10.29V13.62C5.77273 15.6 5.77273 16.59 6.04545 17.31C6.40909 18.21 7.22727 19.02 8.13636 19.38C8.86364 19.65 9.86364 19.65 11.8636 19.65C13.8636 19.65 14.8636 19.65 15.5909 19.38C16.5 19.02 17.3182 18.21 17.6818 17.31C17.9545 16.59 17.9545 15.6 17.9545 13.62V10.83C17.9545 10.2 17.9545 9.66 17.9545 9.39H16.5C15.4091 9.39 14.7727 9.39 14.3182 9.12C13.8636 8.85 13.5 8.49 13.2273 8.04C12.9545 7.5 12.9545 6.96 12.9545 5.88V4.35C12.6818 4.35 12.3182 4.35 11.7727 4.35ZM14.3182 4.71V5.79C14.3182 6.69 14.3182 7.14 14.4091 7.41C14.5 7.59 14.6818 7.77 14.8636 7.86C15.1364 7.95 15.5909 7.95 16.5 7.95H17.5909C17.5 7.86 17.5 7.77 17.4091 7.68C17.1364 7.32 16.7727 6.96 16.0455 6.24L15.8636 6.06C15.3182 5.52 15.0455 5.25 14.6818 4.98C14.5909 4.89 14.5 4.8 14.3182 4.71ZM12.7727 16.05H9.31818C8.95455 16.05 8.59091 15.78 8.59091 15.33C8.59091 14.88 8.95455 14.7 9.31818 14.7H12.6818C13.0455 14.7 13.4091 14.97 13.4091 15.42C13.4091 15.87 13.1364 16.05 12.7727 16.05ZM14.5 12.72H9.31818C8.95455 12.72 8.59091 12.45 8.59091 12C8.59091 11.55 8.86364 11.28 9.31818 11.28H14.4091C14.7727 11.28 15.0455 11.55 15.0455 12C15.0455 12.45 14.8636 12.72 14.5 12.72Z" fill="#99A3AD"/>
</svg>
