<svg width="67" height="67" viewBox="0 0 67 67" fill="none" xmlns="http://www.w3.org/2000/svg">
<path fill-rule="evenodd" clip-rule="evenodd" d="M35.6267 8.89062C39.1505 8.89062 42.0069 11.7472 42.0069 15.2708C42.0069 18.7945 39.1505 21.651 35.6267 21.651C34.7073 21.651 33.8335 21.4566 33.0438 21.1066L26.423 29.3826C26.5506 29.6318 26.6623 29.8909 26.7567 30.158H40.2432C41.119 27.6799 43.4825 25.9045 46.2604 25.9045C49.7842 25.9045 52.6406 28.7609 52.6406 32.2847C52.6406 35.8085 49.7842 38.6649 46.2604 38.6649C45.3408 38.6649 44.4667 38.4703 43.6769 38.1201L37.0559 46.395C37.5019 47.2661 37.7535 48.2529 37.7535 49.2986C37.7535 52.8224 34.8971 55.6788 31.3733 55.6788C27.8496 55.6788 24.9931 52.8224 24.9931 49.2986C24.9931 45.7748 27.8496 42.9184 31.3733 42.9184C32.2922 42.9184 33.1657 43.1126 33.9551 43.4624L40.5767 35.1864C40.4491 34.9372 40.3377 34.6784 40.2432 34.4115H26.7567C25.8809 36.8895 23.5176 38.6649 20.7396 38.6649C17.2159 38.6649 14.3594 35.8085 14.3594 32.2847C14.3594 28.7609 17.2159 25.9045 20.7396 25.9045C21.659 25.9045 22.533 26.099 23.3227 26.449L29.9435 18.1732C29.4979 17.3025 29.2465 16.316 29.2465 15.2708C29.2465 11.7472 32.1029 8.89062 35.6267 8.89062ZM31.3733 47.1719C30.1987 47.1719 29.2465 48.124 29.2465 49.2986C29.2465 50.4732 30.1987 51.4253 31.3733 51.4253C32.5479 51.4253 33.5 50.4732 33.5 49.2986C33.5 48.124 32.5479 47.1719 31.3733 47.1719ZM46.2604 30.158C45.0858 30.158 44.1337 31.1101 44.1337 32.2847C44.1337 33.4593 45.0858 34.4115 46.2604 34.4115C47.435 34.4115 48.3872 33.4593 48.3872 32.2847C48.3872 31.1101 47.435 30.158 46.2604 30.158ZM20.7396 30.158C19.565 30.158 18.6128 31.1101 18.6128 32.2847C18.6128 33.4593 19.565 34.4115 20.7396 34.4115C21.9141 34.4115 22.8663 33.4593 22.8663 32.2847C22.8663 31.1101 21.9141 30.158 20.7396 30.158ZM35.6267 13.1441C34.4521 13.1441 33.5 14.0963 33.5 15.2708C33.5 16.4454 34.4521 17.3976 35.6267 17.3976C36.8013 17.3976 37.7535 16.4454 37.7535 15.2708C37.7535 14.0963 36.8013 13.1441 35.6267 13.1441Z" fill="white"/>
</svg>
